<svg width="16" height="16" viewBox="0 0 16 16" fill="none" xmlns="http://www.w3.org/2000/svg">
  <rect width="16" height="16" rx="3" fill="url(#gradient1)"/>
  
  <!-- Building/Office Icon -->
  <rect x="3" y="6" width="10" height="8" rx="0.5" fill="white" opacity="0.9"/>
  <rect x="4" y="7" width="1.5" height="1.5" rx="0.3" fill="#1e40af"/>
  <rect x="6.5" y="7" width="1.5" height="1.5" rx="0.3" fill="#1e40af"/>
  <rect x="9" y="7" width="1.5" height="1.5" rx="0.3" fill="#1e40af"/>
  <rect x="4" y="9.5" width="1.5" height="1.5" rx="0.3" fill="#06b6d4"/>
  <rect x="6.5" y="9.5" width="1.5" height="1.5" rx="0.3" fill="#06b6d4"/>
  <rect x="9" y="9.5" width="1.5" height="1.5" rx="0.3" fill="#06b6d4"/>
  <rect x="4" y="12" width="1.5" height="1.5" rx="0.3" fill="#1e40af"/>
  <rect x="6.5" y="12" width="1.5" height="1.5" rx="0.3" fill="#1e40af"/>
  <rect x="9" y="12" width="1.5" height="1.5" rx="0.3" fill="#06b6d4"/>
  
  <!-- Header bar -->
  <rect x="3" y="4" width="10" height="2" rx="0.5" fill="url(#gradient2)"/>
  
  <!-- People icons on top -->
  <circle cx="5.5" cy="3" r="1" fill="white"/>
  <circle cx="8" cy="3" r="1" fill="white"/>
  <circle cx="10.5" cy="3" r="1" fill="white"/>
  
  <defs>
    <linearGradient id="gradient1" x1="0" y1="0" x2="16" y2="16" gradientUnits="userSpaceOnUse">
      <stop stop-color="#1e40af"/>
      <stop offset="1" stop-color="#06b6d4"/>
    </linearGradient>
    <linearGradient id="gradient2" x1="3" y1="4" x2="13" y2="6" gradientUnits="userSpaceOnUse">
      <stop stop-color="#3b82f6"/>
      <stop offset="1" stop-color="#06b6d4"/>
    </linearGradient>
  </defs>
</svg>
