<svg width="32" height="32" viewBox="0 0 32 32" fill="none" xmlns="http://www.w3.org/2000/svg">
  <rect width="32" height="32" rx="6" fill="url(#gradient1)"/>
  
  <!-- Building/Office Icon -->
  <rect x="6" y="12" width="20" height="16" rx="1" fill="white" opacity="0.9"/>
  <rect x="8" y="14" width="3" height="3" rx="0.5" fill="#1e40af"/>
  <rect x="13" y="14" width="3" height="3" rx="0.5" fill="#1e40af"/>
  <rect x="18" y="14" width="3" height="3" rx="0.5" fill="#1e40af"/>
  <rect x="8" y="19" width="3" height="3" rx="0.5" fill="#06b6d4"/>
  <rect x="13" y="19" width="3" height="3" rx="0.5" fill="#06b6d4"/>
  <rect x="18" y="19" width="3" height="3" rx="0.5" fill="#06b6d4"/>
  <rect x="8" y="24" width="3" height="3" rx="0.5" fill="#1e40af"/>
  <rect x="13" y="24" width="3" height="3" rx="0.5" fill="#1e40af"/>
  <rect x="18" y="24" width="3" height="3" rx="0.5" fill="#06b6d4"/>
  
  <!-- Header bar -->
  <rect x="6" y="8" width="20" height="4" rx="1" fill="url(#gradient2)"/>
  
  <!-- People icons on top -->
  <circle cx="11" cy="6" r="2" fill="white"/>
  <circle cx="16" cy="6" r="2" fill="white"/>
  <circle cx="21" cy="6" r="2" fill="white"/>
  
  <defs>
    <linearGradient id="gradient1" x1="0" y1="0" x2="32" y2="32" gradientUnits="userSpaceOnUse">
      <stop stop-color="#1e40af"/>
      <stop offset="1" stop-color="#06b6d4"/>
    </linearGradient>
    <linearGradient id="gradient2" x1="6" y1="8" x2="26" y2="12" gradientUnits="userSpaceOnUse">
      <stop stop-color="#3b82f6"/>
      <stop offset="1" stop-color="#06b6d4"/>
    </linearGradient>
  </defs>
</svg>
